%TF.GenerationSoftware,KiCad,Pcbnew,(6.0.7)*%
%TF.CreationDate,2022-08-31T20:47:36+01:00*%
%TF.ProjectId,Adapter,41646170-7465-4722-9e6b-696361645f70,rev?*%
%TF.SameCoordinates,Original*%
%TF.FileFunction,Legend,Top*%
%TF.FilePolarity,Positive*%
%FSLAX46Y46*%
G04 Gerber Fmt 4.6, Leading zero omitted, Abs format (unit mm)*
G04 Created by KiCad (PCBNEW (6.0.7)) date 2022-08-31 20:47:36*
%MOMM*%
%LPD*%
G01*
G04 APERTURE LIST*
%ADD10C,0.150000*%
%ADD11C,0.125000*%
G04 APERTURE END LIST*
D10*
X150241000Y-106426000D02*
X151003000Y-106426000D01*
X153289000Y-107188000D02*
X153289000Y-107950000D01*
X153289000Y-107950000D02*
X153289000Y-108712000D01*
X151765000Y-105664000D02*
X151765000Y-104902000D01*
X153289000Y-109474000D02*
X151003000Y-109474000D01*
X152527000Y-105664000D02*
X153289000Y-105664000D01*
X153289000Y-105664000D02*
X153289000Y-106426000D01*
X153289000Y-108712000D02*
X153289000Y-109474000D01*
X154051000Y-106426000D02*
X154051000Y-107188000D01*
X151003000Y-109474000D02*
X151003000Y-107188000D01*
X152527000Y-104902000D02*
X152527000Y-105664000D01*
X151003000Y-107188000D02*
X150241000Y-107188000D01*
X153289000Y-106426000D02*
X154051000Y-106426000D01*
X151003000Y-106426000D02*
X151003000Y-105664000D01*
X151003000Y-107188000D02*
X153289000Y-107188000D01*
X151003000Y-105664000D02*
X151765000Y-105664000D01*
X151765000Y-104902000D02*
X152527000Y-104902000D01*
X154051000Y-107188000D02*
X153289000Y-107188000D01*
X150241000Y-107188000D02*
X150241000Y-106426000D01*
D11*
X154055047Y-100302190D02*
X154055047Y-99802190D01*
X154245523Y-99802190D01*
X154293142Y-99826000D01*
X154316952Y-99849809D01*
X154340761Y-99897428D01*
X154340761Y-99968857D01*
X154316952Y-100016476D01*
X154293142Y-100040285D01*
X154245523Y-100064095D01*
X154055047Y-100064095D01*
X154531238Y-100278380D02*
X154602666Y-100302190D01*
X154721714Y-100302190D01*
X154769333Y-100278380D01*
X154793142Y-100254571D01*
X154816952Y-100206952D01*
X154816952Y-100159333D01*
X154793142Y-100111714D01*
X154769333Y-100087904D01*
X154721714Y-100064095D01*
X154626476Y-100040285D01*
X154578857Y-100016476D01*
X154555047Y-99992666D01*
X154531238Y-99945047D01*
X154531238Y-99897428D01*
X154555047Y-99849809D01*
X154578857Y-99826000D01*
X154626476Y-99802190D01*
X154745523Y-99802190D01*
X154816952Y-99826000D01*
X155126476Y-99802190D02*
X155221714Y-99802190D01*
X155269333Y-99826000D01*
X155316952Y-99873619D01*
X155340761Y-99968857D01*
X155340761Y-100135523D01*
X155316952Y-100230761D01*
X155269333Y-100278380D01*
X155221714Y-100302190D01*
X155126476Y-100302190D01*
X155078857Y-100278380D01*
X155031238Y-100230761D01*
X155007428Y-100135523D01*
X155007428Y-99968857D01*
X155031238Y-99873619D01*
X155078857Y-99826000D01*
X155126476Y-99802190D01*
X151657904Y-100302190D02*
X151657904Y-99802190D01*
X151848380Y-99802190D01*
X151896000Y-99826000D01*
X151919809Y-99849809D01*
X151943619Y-99897428D01*
X151943619Y-99968857D01*
X151919809Y-100016476D01*
X151896000Y-100040285D01*
X151848380Y-100064095D01*
X151657904Y-100064095D01*
X152134095Y-100278380D02*
X152205523Y-100302190D01*
X152324571Y-100302190D01*
X152372190Y-100278380D01*
X152396000Y-100254571D01*
X152419809Y-100206952D01*
X152419809Y-100159333D01*
X152396000Y-100111714D01*
X152372190Y-100087904D01*
X152324571Y-100064095D01*
X152229333Y-100040285D01*
X152181714Y-100016476D01*
X152157904Y-99992666D01*
X152134095Y-99945047D01*
X152134095Y-99897428D01*
X152157904Y-99849809D01*
X152181714Y-99826000D01*
X152229333Y-99802190D01*
X152348380Y-99802190D01*
X152419809Y-99826000D01*
X152634095Y-100302190D02*
X152634095Y-99802190D01*
X156606952Y-100302190D02*
X156606952Y-99802190D01*
X156797428Y-99802190D01*
X156845047Y-99826000D01*
X156868857Y-99849809D01*
X156892666Y-99897428D01*
X156892666Y-99968857D01*
X156868857Y-100016476D01*
X156845047Y-100040285D01*
X156797428Y-100064095D01*
X156606952Y-100064095D01*
X157083142Y-100278380D02*
X157154571Y-100302190D01*
X157273619Y-100302190D01*
X157321238Y-100278380D01*
X157345047Y-100254571D01*
X157368857Y-100206952D01*
X157368857Y-100159333D01*
X157345047Y-100111714D01*
X157321238Y-100087904D01*
X157273619Y-100064095D01*
X157178380Y-100040285D01*
X157130761Y-100016476D01*
X157106952Y-99992666D01*
X157083142Y-99945047D01*
X157083142Y-99897428D01*
X157106952Y-99849809D01*
X157130761Y-99826000D01*
X157178380Y-99802190D01*
X157297428Y-99802190D01*
X157368857Y-99826000D01*
X157583142Y-100302190D02*
X157583142Y-99802190D01*
X157702190Y-99802190D01*
X157773619Y-99826000D01*
X157821238Y-99873619D01*
X157845047Y-99921238D01*
X157868857Y-100016476D01*
X157868857Y-100087904D01*
X157845047Y-100183142D01*
X157821238Y-100230761D01*
X157773619Y-100278380D01*
X157702190Y-100302190D01*
X157583142Y-100302190D01*
X146685047Y-99423500D02*
X146637428Y-99399690D01*
X146566000Y-99399690D01*
X146494571Y-99423500D01*
X146446952Y-99471119D01*
X146423142Y-99518738D01*
X146399333Y-99613976D01*
X146399333Y-99685404D01*
X146423142Y-99780642D01*
X146446952Y-99828261D01*
X146494571Y-99875880D01*
X146566000Y-99899690D01*
X146613619Y-99899690D01*
X146685047Y-99875880D01*
X146708857Y-99852071D01*
X146708857Y-99685404D01*
X146613619Y-99685404D01*
X146923142Y-99899690D02*
X146923142Y-99399690D01*
X147208857Y-99899690D01*
X147208857Y-99399690D01*
X147446952Y-99899690D02*
X147446952Y-99399690D01*
X147566000Y-99399690D01*
X147637428Y-99423500D01*
X147685047Y-99471119D01*
X147708857Y-99518738D01*
X147732666Y-99613976D01*
X147732666Y-99685404D01*
X147708857Y-99780642D01*
X147685047Y-99828261D01*
X147637428Y-99875880D01*
X147566000Y-99899690D01*
X147446952Y-99899690D01*
X146685047Y-100252309D02*
X146708857Y-100228500D01*
X146756476Y-100204690D01*
X146875523Y-100204690D01*
X146923142Y-100228500D01*
X146946952Y-100252309D01*
X146970761Y-100299928D01*
X146970761Y-100347547D01*
X146946952Y-100418976D01*
X146661238Y-100704690D01*
X146970761Y-100704690D01*
X147256476Y-100418976D02*
X147208857Y-100395166D01*
X147185047Y-100371357D01*
X147161238Y-100323738D01*
X147161238Y-100299928D01*
X147185047Y-100252309D01*
X147208857Y-100228500D01*
X147256476Y-100204690D01*
X147351714Y-100204690D01*
X147399333Y-100228500D01*
X147423142Y-100252309D01*
X147446952Y-100299928D01*
X147446952Y-100323738D01*
X147423142Y-100371357D01*
X147399333Y-100395166D01*
X147351714Y-100418976D01*
X147256476Y-100418976D01*
X147208857Y-100442785D01*
X147185047Y-100466595D01*
X147161238Y-100514214D01*
X147161238Y-100609452D01*
X147185047Y-100657071D01*
X147208857Y-100680880D01*
X147256476Y-100704690D01*
X147351714Y-100704690D01*
X147399333Y-100680880D01*
X147423142Y-100657071D01*
X147446952Y-100609452D01*
X147446952Y-100514214D01*
X147423142Y-100466595D01*
X147399333Y-100442785D01*
X147351714Y-100418976D01*
X148717428Y-110462190D02*
X148717428Y-109962190D01*
X148907904Y-109962190D01*
X148955523Y-109986000D01*
X148979333Y-110009809D01*
X149003142Y-110057428D01*
X149003142Y-110128857D01*
X148979333Y-110176476D01*
X148955523Y-110200285D01*
X148907904Y-110224095D01*
X148717428Y-110224095D01*
X149217428Y-110462190D02*
X149217428Y-110128857D01*
X149217428Y-109962190D02*
X149193619Y-109986000D01*
X149217428Y-110009809D01*
X149241238Y-109986000D01*
X149217428Y-109962190D01*
X149217428Y-110009809D01*
X149669809Y-110438380D02*
X149622190Y-110462190D01*
X149526952Y-110462190D01*
X149479333Y-110438380D01*
X149455523Y-110414571D01*
X149431714Y-110366952D01*
X149431714Y-110224095D01*
X149455523Y-110176476D01*
X149479333Y-110152666D01*
X149526952Y-110128857D01*
X149622190Y-110128857D01*
X149669809Y-110152666D01*
X149955523Y-110462190D02*
X149907904Y-110438380D01*
X149884095Y-110414571D01*
X149860285Y-110366952D01*
X149860285Y-110224095D01*
X149884095Y-110176476D01*
X149907904Y-110152666D01*
X149955523Y-110128857D01*
X150026952Y-110128857D01*
X150074571Y-110152666D01*
X150098380Y-110176476D01*
X150122190Y-110224095D01*
X150122190Y-110366952D01*
X150098380Y-110414571D01*
X150074571Y-110438380D01*
X150026952Y-110462190D01*
X149955523Y-110462190D01*
X150931714Y-110128857D02*
X150931714Y-110533619D01*
X150907904Y-110581238D01*
X150884095Y-110605047D01*
X150836476Y-110628857D01*
X150765047Y-110628857D01*
X150717428Y-110605047D01*
X150931714Y-110438380D02*
X150884095Y-110462190D01*
X150788857Y-110462190D01*
X150741238Y-110438380D01*
X150717428Y-110414571D01*
X150693619Y-110366952D01*
X150693619Y-110224095D01*
X150717428Y-110176476D01*
X150741238Y-110152666D01*
X150788857Y-110128857D01*
X150884095Y-110128857D01*
X150931714Y-110152666D01*
X151241238Y-110462190D02*
X151193619Y-110438380D01*
X151169809Y-110414571D01*
X151146000Y-110366952D01*
X151146000Y-110224095D01*
X151169809Y-110176476D01*
X151193619Y-110152666D01*
X151241238Y-110128857D01*
X151312666Y-110128857D01*
X151360285Y-110152666D01*
X151384095Y-110176476D01*
X151407904Y-110224095D01*
X151407904Y-110366952D01*
X151384095Y-110414571D01*
X151360285Y-110438380D01*
X151312666Y-110462190D01*
X151241238Y-110462190D01*
X151812666Y-110438380D02*
X151765047Y-110462190D01*
X151669809Y-110462190D01*
X151622190Y-110438380D01*
X151598380Y-110390761D01*
X151598380Y-110200285D01*
X151622190Y-110152666D01*
X151669809Y-110128857D01*
X151765047Y-110128857D01*
X151812666Y-110152666D01*
X151836476Y-110200285D01*
X151836476Y-110247904D01*
X151598380Y-110295523D01*
X152026952Y-110438380D02*
X152074571Y-110462190D01*
X152169809Y-110462190D01*
X152217428Y-110438380D01*
X152241238Y-110390761D01*
X152241238Y-110366952D01*
X152217428Y-110319333D01*
X152169809Y-110295523D01*
X152098380Y-110295523D01*
X152050761Y-110271714D01*
X152026952Y-110224095D01*
X152026952Y-110200285D01*
X152050761Y-110152666D01*
X152098380Y-110128857D01*
X152169809Y-110128857D01*
X152217428Y-110152666D01*
X152836476Y-110462190D02*
X152836476Y-109962190D01*
X153050761Y-110462190D02*
X153050761Y-110200285D01*
X153026952Y-110152666D01*
X152979333Y-110128857D01*
X152907904Y-110128857D01*
X152860285Y-110152666D01*
X152836476Y-110176476D01*
X153479333Y-110438380D02*
X153431714Y-110462190D01*
X153336476Y-110462190D01*
X153288857Y-110438380D01*
X153265047Y-110390761D01*
X153265047Y-110200285D01*
X153288857Y-110152666D01*
X153336476Y-110128857D01*
X153431714Y-110128857D01*
X153479333Y-110152666D01*
X153503142Y-110200285D01*
X153503142Y-110247904D01*
X153265047Y-110295523D01*
X153717428Y-110462190D02*
X153717428Y-110128857D01*
X153717428Y-110224095D02*
X153741238Y-110176476D01*
X153765047Y-110152666D01*
X153812666Y-110128857D01*
X153860285Y-110128857D01*
X154217428Y-110438380D02*
X154169809Y-110462190D01*
X154074571Y-110462190D01*
X154026952Y-110438380D01*
X154003142Y-110390761D01*
X154003142Y-110200285D01*
X154026952Y-110152666D01*
X154074571Y-110128857D01*
X154169809Y-110128857D01*
X154217428Y-110152666D01*
X154241238Y-110200285D01*
X154241238Y-110247904D01*
X154003142Y-110295523D01*
X154907904Y-110462190D02*
X154860285Y-110438380D01*
X154836476Y-110390761D01*
X154836476Y-109962190D01*
X155169809Y-110462190D02*
X155122190Y-110438380D01*
X155098380Y-110414571D01*
X155074571Y-110366952D01*
X155074571Y-110224095D01*
X155098380Y-110176476D01*
X155122190Y-110152666D01*
X155169809Y-110128857D01*
X155241238Y-110128857D01*
X155288857Y-110152666D01*
X155312666Y-110176476D01*
X155336476Y-110224095D01*
X155336476Y-110366952D01*
X155312666Y-110414571D01*
X155288857Y-110438380D01*
X155241238Y-110462190D01*
X155169809Y-110462190D01*
X155622190Y-110462190D02*
X155574571Y-110438380D01*
X155550761Y-110390761D01*
X155550761Y-109962190D01*
X146090285Y-91134380D02*
X146161714Y-91158190D01*
X146280761Y-91158190D01*
X146328380Y-91134380D01*
X146352190Y-91110571D01*
X146376000Y-91062952D01*
X146376000Y-91015333D01*
X146352190Y-90967714D01*
X146328380Y-90943904D01*
X146280761Y-90920095D01*
X146185523Y-90896285D01*
X146137904Y-90872476D01*
X146114095Y-90848666D01*
X146090285Y-90801047D01*
X146090285Y-90753428D01*
X146114095Y-90705809D01*
X146137904Y-90682000D01*
X146185523Y-90658190D01*
X146304571Y-90658190D01*
X146376000Y-90682000D01*
X146661714Y-91158190D02*
X146614095Y-91134380D01*
X146590285Y-91110571D01*
X146566476Y-91062952D01*
X146566476Y-90920095D01*
X146590285Y-90872476D01*
X146614095Y-90848666D01*
X146661714Y-90824857D01*
X146733142Y-90824857D01*
X146780761Y-90848666D01*
X146804571Y-90872476D01*
X146828380Y-90920095D01*
X146828380Y-91062952D01*
X146804571Y-91110571D01*
X146780761Y-91134380D01*
X146733142Y-91158190D01*
X146661714Y-91158190D01*
X147114095Y-91158190D02*
X147066476Y-91134380D01*
X147042666Y-91086761D01*
X147042666Y-90658190D01*
X147518857Y-91158190D02*
X147518857Y-90658190D01*
X147518857Y-91134380D02*
X147471238Y-91158190D01*
X147376000Y-91158190D01*
X147328380Y-91134380D01*
X147304571Y-91110571D01*
X147280761Y-91062952D01*
X147280761Y-90920095D01*
X147304571Y-90872476D01*
X147328380Y-90848666D01*
X147376000Y-90824857D01*
X147471238Y-90824857D01*
X147518857Y-90848666D01*
X147947428Y-91134380D02*
X147899809Y-91158190D01*
X147804571Y-91158190D01*
X147756952Y-91134380D01*
X147733142Y-91086761D01*
X147733142Y-90896285D01*
X147756952Y-90848666D01*
X147804571Y-90824857D01*
X147899809Y-90824857D01*
X147947428Y-90848666D01*
X147971238Y-90896285D01*
X147971238Y-90943904D01*
X147733142Y-90991523D01*
X148185523Y-91158190D02*
X148185523Y-90824857D01*
X148185523Y-90920095D02*
X148209333Y-90872476D01*
X148233142Y-90848666D01*
X148280761Y-90824857D01*
X148328380Y-90824857D01*
X148876000Y-90824857D02*
X148876000Y-91324857D01*
X148876000Y-90848666D02*
X148923619Y-90824857D01*
X149018857Y-90824857D01*
X149066476Y-90848666D01*
X149090285Y-90872476D01*
X149114095Y-90920095D01*
X149114095Y-91062952D01*
X149090285Y-91110571D01*
X149066476Y-91134380D01*
X149018857Y-91158190D01*
X148923619Y-91158190D01*
X148876000Y-91134380D01*
X149399809Y-91158190D02*
X149352190Y-91134380D01*
X149328380Y-91110571D01*
X149304571Y-91062952D01*
X149304571Y-90920095D01*
X149328380Y-90872476D01*
X149352190Y-90848666D01*
X149399809Y-90824857D01*
X149471238Y-90824857D01*
X149518857Y-90848666D01*
X149542666Y-90872476D01*
X149566476Y-90920095D01*
X149566476Y-91062952D01*
X149542666Y-91110571D01*
X149518857Y-91134380D01*
X149471238Y-91158190D01*
X149399809Y-91158190D01*
X149780761Y-91158190D02*
X149780761Y-90824857D01*
X149780761Y-90920095D02*
X149804571Y-90872476D01*
X149828380Y-90848666D01*
X149876000Y-90824857D01*
X149923619Y-90824857D01*
X150018857Y-90824857D02*
X150209333Y-90824857D01*
X150090285Y-90658190D02*
X150090285Y-91086761D01*
X150114095Y-91134380D01*
X150161714Y-91158190D01*
X150209333Y-91158190D01*
X150828380Y-91158190D02*
X150780761Y-91134380D01*
X150756952Y-91110571D01*
X150733142Y-91062952D01*
X150733142Y-90920095D01*
X150756952Y-90872476D01*
X150780761Y-90848666D01*
X150828380Y-90824857D01*
X150899809Y-90824857D01*
X150947428Y-90848666D01*
X150971238Y-90872476D01*
X150995047Y-90920095D01*
X150995047Y-91062952D01*
X150971238Y-91110571D01*
X150947428Y-91134380D01*
X150899809Y-91158190D01*
X150828380Y-91158190D01*
X151209333Y-90824857D02*
X151209333Y-91158190D01*
X151209333Y-90872476D02*
X151233142Y-90848666D01*
X151280761Y-90824857D01*
X151352190Y-90824857D01*
X151399809Y-90848666D01*
X151423619Y-90896285D01*
X151423619Y-91158190D01*
X152114095Y-91158190D02*
X152066476Y-91134380D01*
X152042666Y-91110571D01*
X152018857Y-91062952D01*
X152018857Y-90920095D01*
X152042666Y-90872476D01*
X152066476Y-90848666D01*
X152114095Y-90824857D01*
X152185523Y-90824857D01*
X152233142Y-90848666D01*
X152256952Y-90872476D01*
X152280761Y-90920095D01*
X152280761Y-91062952D01*
X152256952Y-91110571D01*
X152233142Y-91134380D01*
X152185523Y-91158190D01*
X152114095Y-91158190D01*
X152423619Y-90824857D02*
X152614095Y-90824857D01*
X152495047Y-90658190D02*
X152495047Y-91086761D01*
X152518857Y-91134380D01*
X152566476Y-91158190D01*
X152614095Y-91158190D01*
X152780761Y-91158190D02*
X152780761Y-90658190D01*
X152995047Y-91158190D02*
X152995047Y-90896285D01*
X152971238Y-90848666D01*
X152923619Y-90824857D01*
X152852190Y-90824857D01*
X152804571Y-90848666D01*
X152780761Y-90872476D01*
X153423619Y-91134380D02*
X153376000Y-91158190D01*
X153280761Y-91158190D01*
X153233142Y-91134380D01*
X153209333Y-91086761D01*
X153209333Y-90896285D01*
X153233142Y-90848666D01*
X153280761Y-90824857D01*
X153376000Y-90824857D01*
X153423619Y-90848666D01*
X153447428Y-90896285D01*
X153447428Y-90943904D01*
X153209333Y-90991523D01*
X153661714Y-91158190D02*
X153661714Y-90824857D01*
X153661714Y-90920095D02*
X153685523Y-90872476D01*
X153709333Y-90848666D01*
X153756952Y-90824857D01*
X153804571Y-90824857D01*
X154328380Y-91134380D02*
X154376000Y-91158190D01*
X154471238Y-91158190D01*
X154518857Y-91134380D01*
X154542666Y-91086761D01*
X154542666Y-91062952D01*
X154518857Y-91015333D01*
X154471238Y-90991523D01*
X154399809Y-90991523D01*
X154352190Y-90967714D01*
X154328380Y-90920095D01*
X154328380Y-90896285D01*
X154352190Y-90848666D01*
X154399809Y-90824857D01*
X154471238Y-90824857D01*
X154518857Y-90848666D01*
X154756952Y-91158190D02*
X154756952Y-90824857D01*
X154756952Y-90658190D02*
X154733142Y-90682000D01*
X154756952Y-90705809D01*
X154780761Y-90682000D01*
X154756952Y-90658190D01*
X154756952Y-90705809D01*
X155209333Y-91158190D02*
X155209333Y-90658190D01*
X155209333Y-91134380D02*
X155161714Y-91158190D01*
X155066476Y-91158190D01*
X155018857Y-91134380D01*
X154995047Y-91110571D01*
X154971238Y-91062952D01*
X154971238Y-90920095D01*
X154995047Y-90872476D01*
X155018857Y-90848666D01*
X155066476Y-90824857D01*
X155161714Y-90824857D01*
X155209333Y-90848666D01*
X155637904Y-91134380D02*
X155590285Y-91158190D01*
X155495047Y-91158190D01*
X155447428Y-91134380D01*
X155423619Y-91086761D01*
X155423619Y-90896285D01*
X155447428Y-90848666D01*
X155495047Y-90824857D01*
X155590285Y-90824857D01*
X155637904Y-90848666D01*
X155661714Y-90896285D01*
X155661714Y-90943904D01*
X155423619Y-90991523D01*
X148986952Y-100302190D02*
X148986952Y-99802190D01*
X149177428Y-99802190D01*
X149225047Y-99826000D01*
X149248857Y-99849809D01*
X149272666Y-99897428D01*
X149272666Y-99968857D01*
X149248857Y-100016476D01*
X149225047Y-100040285D01*
X149177428Y-100064095D01*
X148986952Y-100064095D01*
X149463142Y-100278380D02*
X149534571Y-100302190D01*
X149653619Y-100302190D01*
X149701238Y-100278380D01*
X149725047Y-100254571D01*
X149748857Y-100206952D01*
X149748857Y-100159333D01*
X149725047Y-100111714D01*
X149701238Y-100087904D01*
X149653619Y-100064095D01*
X149558380Y-100040285D01*
X149510761Y-100016476D01*
X149486952Y-99992666D01*
X149463142Y-99945047D01*
X149463142Y-99897428D01*
X149486952Y-99849809D01*
X149510761Y-99826000D01*
X149558380Y-99802190D01*
X149677428Y-99802190D01*
X149748857Y-99826000D01*
X150248857Y-100254571D02*
X150225047Y-100278380D01*
X150153619Y-100302190D01*
X150106000Y-100302190D01*
X150034571Y-100278380D01*
X149986952Y-100230761D01*
X149963142Y-100183142D01*
X149939333Y-100087904D01*
X149939333Y-100016476D01*
X149963142Y-99921238D01*
X149986952Y-99873619D01*
X150034571Y-99826000D01*
X150106000Y-99802190D01*
X150153619Y-99802190D01*
X150225047Y-99826000D01*
X150248857Y-99849809D01*
M02*
