M48
; DRILL file {KiCad (6.0.7)} date Wed Aug 31 20:48:05 2022
; FORMAT={-:-/ absolute / metric / decimal}
; #@! TF.CreationDate,2022-08-31T20:48:05+01:00
; #@! TF.GenerationSoftware,Kicad,Pcbnew,(6.0.7)
; #@! TF.FileFunction,Plated,1,2,PTH
FMAT,2
METRIC
; #@! TA.AperFunction,Plated,PTH,ComponentDrill
T1C1.000
; #@! TA.AperFunction,Plated,PTH,ComponentDrill
T2C1.020
%
G90
G05
T1
X149.222Y-92.731
X149.222Y-94.731
X150.922Y-92.731
X150.922Y-94.731
X152.622Y-92.731
X152.622Y-94.731
T2
X147.066Y-98.298
X147.066Y-116.078
X149.606Y-98.298
X149.606Y-116.078
X152.146Y-98.298
X152.146Y-116.078
X154.686Y-98.298
X154.686Y-116.078
X157.226Y-98.298
X157.226Y-116.078
T1
G00X146.722Y-87.331
M15
G01X146.722Y-88.132
M16
G05
G00X155.122Y-87.331
M15
G01X155.122Y-88.132
M16
G05
T0
M30
